Coordinates
version=1
nRows=15
nColumns=46
inDegrees=yes

Units are S.I. units (second, meters, Newtons, ...)
Angles are in degrees.

endheader
time	pelvis_tilt	pelvis_list	pelvis_rotation	pelvis_tx	pelvis_ty	pelvis_tz	bb_angle	bb_tx	bb_ty	bb_tz	hip_flexion_r	hip_adduction_r	hip_rotation_r	knee_angle_r	knee_angle_r_beta	ankle_angle_r	subtalar_angle_r	mtp_angle_r	crank_angle_r	hip_flexion_l	hip_adduction_l	hip_rotation_l	knee_angle_l	knee_angle_l_beta	ankle_angle_l	subtalar_angle_l	mtp_angle_l	crank_angle_l	lumbar_extension	lumbar_bending	lumbar_rotation	arm_flex_r	arm_add_r	arm_rot_r	elbow_flex_r	pro_sup_r	wrist_flex_r	wrist_dev_r	arm_flex_l	arm_add_l	arm_rot_l	elbow_flex_l	pro_sup_l	wrist_flex_l	wrist_dev_l
      0.00500000	    -13.50302569	     -2.85655557	     -0.68471797	      0.08571997	      1.10023862	     -0.26274881	      0.00000000	      0.50000000	      0.00000000	      0.25000000	     78.61539447	     -3.47356481	     -1.35038612	     90.06367114	      1.57190760	     16.15421385	     -6.03198354	      0.00000000	      0.00000000	     43.88549308	    -10.19309666	     -0.82599592	     66.90444555	      1.16770286	     13.07829688	     -2.40925360	      0.00000000	      0.00000000	    -49.96994146	      1.39513008	      2.63250080	     88.65611193	    -12.12651910	     42.99360208	     25.69746420	     33.17419778	      0.00000000	      0.00000000	     88.32229049	    -12.63162838	     27.69493553	     47.47751030	     33.53154216	      0.00000000	      0.00000000
      0.01000000	    -13.64464751	     -2.84870395	     -0.65889081	      0.08568327	      1.09996405	     -0.26272649	      0.00000000	      0.50000000	      0.00000000	      0.25000000	     78.78536650	     -3.49247474	     -1.34456219	     90.06264096	      1.57188962	     16.02730599	     -6.17016569	      0.00000000	      0.00000000	     44.07303988	    -10.14230253	     -0.75370032	     66.93936288	      1.16831228	     12.96615949	     -2.57518606	      0.00000000	      0.00000000	    -49.79391095	      1.45271762	      2.35662857	     88.83747106	    -12.02480038	     45.46044334	     24.96001500	     33.75131629	      0.00000000	      0.00000000	     88.21689726	    -13.22787405	     27.90657826	     47.88997291	     34.19443525	      0.00000000	      0.00000000
      0.01500000	    -13.66502097	     -2.83621525	     -0.64969681	      0.08568206	      1.09992435	     -0.26268897	      0.00000000	      0.50000000	      0.00000000	      0.25000000	     78.80988982	     -3.50900580	     -1.34026290	     90.06022724	      1.57184749	     16.02927047	     -6.16300559	      0.00000000	      0.00000000	     44.10486988	    -10.12486348	     -0.74566699	     66.96111438	      1.16869192	     12.98579172	     -2.55636835	      0.00000000	      0.00000000	    -49.77845654	      1.42968908	      2.38265281	     88.79122705	    -12.01629246	     44.82297095	     24.98761997	     34.16306994	      0.00000000	      0.00000000	     88.25472449	    -13.10992804	     27.83926733	     47.64869980	     34.66604024	      0.00000000	      0.00000000
      0.02000000	    -13.73839479	     -2.86108760	     -0.59959411	      0.08568713	      1.09992766	     -0.26286401	      0.00000000	      0.50000000	      0.00000000	      0.25000000	     78.84743633	     -3.58200690	     -1.40820968	     90.00972591	      1.57096608	     16.06644585	     -6.14779410	      0.00000000	      0.00000000	     44.19209580	    -10.03488851	     -0.59213411	     66.96588500	      1.16877518	     12.95853832	     -2.68981935	      0.00000000	      0.00000000	    -49.72394592	      1.49878903	      2.35648306	     88.78236382	    -11.91701423	     44.33218555	     24.88453444	     34.59202590	      0.00000000	      0.00000000	     88.29412498	    -13.10200000	     27.39993002	     47.95019005	     35.18173548	      0.00000000	      0.00000000
      0.02500000	    -13.66574530	     -2.90386697	     -0.56995578	      0.08567790	      1.10025899	     -0.26285078	      0.00000000	      0.50000000	      0.00000000	      0.25000000	     78.74737669	     -3.61141994	     -1.49506679	     90.00986927	      1.57096858	     16.15147225	     -6.24969465	      0.00000000	      0.00000000	     44.09429337	    -10.05684421	     -0.54595297	     66.90841213	      1.16777209	     13.01903427	     -2.59187489	      0.00000000	      0.00000000	    -49.92611368	      1.57651742	      2.34342351	     88.75171354	    -11.97008705	     43.27701319	     25.73827882	     35.11070598	      0.00000000	      0.00000000	     88.22580116	    -13.15133035	     26.84854646	     48.34398820	     35.70206354	      0.00000000	      0.00000000
      0.03000000	    -13.82643943	     -2.85802111	     -0.59824940	      0.08566761	      1.09987768	     -0.26270075	      0.00000000	      0.50000000	      0.00000000	      0.25000000	     78.95500202	     -3.58953239	     -1.42385686	     90.03031580	      1.57132544	     16.04744301	     -6.22705324	      0.00000000	      0.00000000	     44.30565279	    -10.04035165	     -0.56881490	     66.99556218	      1.16929314	     12.94767820	     -2.66935806	      0.00000000	      0.00000000	    -49.64115808	      1.49669385	      2.13423713	     88.85742889	    -11.77668518	     44.98650959	     24.46658541	     35.83838062	      0.00000000	      0.00000000	     88.20788848	    -13.50004729	     27.36716020	     48.01502898	     36.42133111	      0.00000000	      0.00000000
      0.03500000	    -13.88935658	     -2.86878288	     -0.58637738	      0.08560593	      1.09981244	     -0.26262336	      0.00000000	      0.50000000	      0.00000000	      0.25000000	     79.01979946	     -3.56175639	     -1.41348133	     90.00521325	      1.57088732	     15.96292154	     -6.38078008	      0.00000000	      0.00000000	     44.39463621	    -10.03643707	     -0.53141328	     67.00691859	      1.16949135	     12.87920189	     -2.77602699	      0.00000000	      0.00000000	    -49.57860434	      1.47457828	      2.25366568	     88.75489748	    -11.51544740	     42.65398618	     24.27173763	     36.81270122	      0.00000000	      0.00000000	     88.27756916	    -13.23245840	     27.70854965	     46.86156037	     37.53208195	      0.00000000	      0.00000000
      0.04000000	    -13.84277659	     -2.84322370	     -0.60897049	      0.08567804	      1.09989744	     -0.26252982	      0.00000000	      0.50000000	      0.00000000	      0.25000000	     78.97151918	     -3.55494045	     -1.38604536	     90.01788596	      1.57110850	     16.03525384	     -6.23777270	      0.00000000	      0.00000000	     44.32096739	    -10.05603137	     -0.58861740	     67.00310704	      1.16942483	     12.97369237	     -2.58147176	      0.00000000	      0.00000000	    -49.65980089	      1.41876270	      2.22378894	     88.74978281	    -11.58970061	     42.67927263	     24.45893437	     37.06020304	      0.00000000	      0.00000000	     88.25644721	    -13.30561936	     27.61891294	     47.00373942	     37.77502913	      0.00000000	      0.00000000
      0.04500000	    -13.90896792	     -2.86821810	     -0.58051508	      0.08566607	      1.09979431	     -0.26249294	      0.00000000	      0.50000000	      0.00000000	      0.25000000	     79.04577309	     -3.57556207	     -1.43281444	     90.01383673	      1.57103782	     15.96116812	     -6.33490295	      0.00000000	      0.00000000	     44.42141289	    -10.05171457	     -0.53400479	     67.02850580	      1.16986812	     12.89745910	     -2.70281713	      0.00000000	      0.00000000	    -49.57975540	      1.44671896	      2.17213331	     88.80252784	    -11.58844109	     43.34933316	     24.15058145	     37.17425707	      0.00000000	      0.00000000	     88.22164028	    -13.43514412	     27.73714676	     47.10578567	     37.91466251	      0.00000000	      0.00000000
      0.05000000	    -13.93041192	     -2.84125659	     -0.57969964	      0.08572391	      1.09977680	     -0.26243547	      0.00000000	      0.50000000	      0.00000000	      0.25000000	     79.07520638	     -3.59550799	     -1.42298494	     90.02382553	      1.57121216	     15.95590956	     -6.30234488	      0.00000000	      0.00000000	     44.43081577	    -10.03233327	     -0.54634999	     67.01506570	      1.16963354	     12.92845479	     -2.63646983	      0.00000000	      0.00000000	    -49.57445017	      1.41779398	      2.02620168	     88.87126114	    -11.77728099	     44.88069549	     24.22065362	     37.62510818	      0.00000000	      0.00000000	     88.14477229	    -13.66993868	     27.67642578	     47.41321757	     38.23421964	      0.00000000	      0.00000000
      0.05500000	    -13.93369088	     -2.85150455	     -0.56863485	      0.08573832	      1.09977399	     -0.26237963	      0.00000000	      0.50000000	      0.00000000	      0.25000000	     79.07756215	     -3.60018950	     -1.44090541	     90.02601492	      1.57125037	     15.94907372	     -6.31261216	      0.00000000	      0.00000000	     44.43947242	    -10.04419657	     -0.53569219	     67.02081975	      1.16973397	     12.93043589	     -2.62631125	      0.00000000	      0.00000000	    -49.57828943	      1.39952725	      2.11337231	     88.82780578	    -11.85497644	     44.36204404	     24.34004838	     37.64587188	      0.00000000	      0.00000000	     88.19806063	    -13.48068764	     27.64504672	     47.20666582	     38.30598627	      0.00000000	      0.00000000
      0.06000000	    -13.94767268	     -2.84824046	     -0.56039244	      0.08576400	      1.09979830	     -0.26231252	      0.00000000	      0.50000000	      0.00000000	      0.25000000	     79.09239848	     -3.61280092	     -1.44695072	     90.02488336	      1.57123062	     15.92623755	     -6.31153587	      0.00000000	      0.00000000	     44.44243651	    -10.04349439	     -0.52856456	     66.99587641	      1.16929863	     12.95971994	     -2.58020312	      0.00000000	      0.00000000	    -49.58832685	      1.39496181	      2.01124276	     88.85403597	    -11.84331459	     44.97749240	     24.37810493	     37.49210047	      0.00000000	      0.00000000	     88.16337256	    -13.67384015	     27.63484284	     47.49486633	     38.22589282	      0.00000000	      0.00000000
      0.06500000	    -13.98462310	     -2.82841020	     -0.54451879	      0.08578078	      1.09969765	     -0.26225165	      0.00000000	      0.50000000	      0.00000000	      0.25000000	     79.14616503	     -3.62726423	     -1.43650350	     90.04571720	      1.57159424	     15.91600612	     -6.33583186	      0.00000000	      0.00000000	     44.49553216	    -10.01599377	     -0.52236531	     67.01758047	      1.16967744	     12.90786308	     -2.62387290	      0.00000000	      0.00000000	    -49.53449131	      1.37049147	      2.04848155	     88.81870248	    -11.80160235	     44.34622197	     24.33480733	     37.47871021	      0.00000000	      0.00000000	     88.20438827	    -13.52968003	     27.64615848	     47.24578249	     38.32644817	      0.00000000	      0.00000000
      0.07000000	    -14.01267368	     -2.79557226	     -0.52408051	      0.08578915	      1.09961269	     -0.26225656	      0.00000000	      0.50000000	      0.00000000	      0.25000000	     79.19874897	     -3.66449101	     -1.40705391	     90.07930392	      1.57218044	     15.92502710	     -6.28087657	      0.00000000	      0.00000000	     44.52425300	     -9.96955521	     -0.52142993	     67.01403000	      1.16961547	     12.91363478	     -2.60600092	      0.00000000	      0.00000000	    -49.51249244	      1.36256042	      2.04708143	     88.78679049	    -11.81778795	     44.12630202	     24.45380706	     37.56364916	      0.00000000	      0.00000000	     88.22436366	    -13.48959600	     27.65806416	     47.19831137	     38.44357373	      0.00000000	      0.00000000
      0.07500000	    -13.76064683	     -2.83176459	     -0.44287954	      0.08591696	      1.10000779	     -0.26228583	      0.00000000	      0.50000000	      0.00000000	      0.25000000	     78.91017152	     -3.76461080	     -1.51162227	     90.11923350	      1.57287734	     16.03841786	     -6.21041348	      0.00000000	      0.00000000	     44.23675020	     -9.98106433	     -0.47605257	     66.97858236	      1.16899679	     13.07772434	     -2.35733440	      0.00000000	      0.00000000	    -49.88131413	      1.41439349	      2.06421884	     88.71249936	    -11.99969194	     42.85495357	     25.41055846	     38.03343902	      0.00000000	      0.00000000	     88.16418965	    -13.43371058	     27.13578114	     47.63734444	     38.91037680	      0.00000000	      0.00000000
